<?xml version="1.0" encoding="UTF-8"?>
<svg width="31px" height="101px" viewBox="0 0 31 101" version="1.1" xmlns="http://www.w3.org/2000/svg" xmlns:xlink="http://www.w3.org/1999/xlink">
    <!-- Generator: Sketch 52.6 (67491) - http://www.bohemiancoding.com/sketch -->
    <title>TA Logo</title>
    <desc>Created with Sketch.</desc>
    <g id="Color" stroke="none" stroke-width="1" fill="none" fill-rule="evenodd">
        <g id="Color---Usage" transform="translate(-405.000000, -1513.000000)" fill="#FFFFFE">
            <g id="TA-logo/icon" transform="translate(405.000000, 1513.000000)">
                <g id="TA-Logo">
                    <path d="M30.7199426,98.1811164 L15.8402567,98.1811164 L15.8402567,95.5348097 L30.2959304,95.5348097 L29.9766126,93.568775 L15.8402567,93.568775 L15.8402567,90.9272929 L29.6572948,90.9272929 L29.337977,88.9709075 L15.8402567,88.9709075 L15.8402567,86.3221884 L28.9139649,86.3221884 L28.5946471,84.3658031 L15.8402567,84.3658031 L15.8402567,81.8135765 L28.1706349,81.8135765 L27.8513171,79.8523665 L15.8402567,79.8523665 L15.8402567,77.208472 L27.5346167,77.208472 L27.2126815,75.2448497 L15.8402567,75.2448497 L15.8402567,72.6033676 L26.7886694,72.6033676 L26.4693516,70.6421576 L15.8402567,70.6421576 L15.8402567,67.9958508 L26.0401047,67.9958508 L25.7207869,66.0394654 L15.8402567,66.0394654 L15.8402567,63.3979833 L25.4093212,63.3979833 L25.087386,61.4367733 L15.8402567,61.4367733 L15.8402567,58.7904665 L24.6581391,58.7904665 L24.3388213,56.8316688 L19.2899358,56.8316688 L20.8341776,31.1598398 L17.1149105,31.1598398 L17.271952,33.8037343 L15.8402567,33.8037343 L15.8402567,0 L10.9117697,31.1598398 L7.545846,31.1598398 L8.47239108,46.5648671 L0,100.139914 L14.9869976,100.139914 L15.8402567,100.139914 L31.0392604,100.139914 L30.7199426,98.1811164 Z M15.8402567,35.7601197 L17.3923506,35.7601197 L17.5520095,38.4088387 L15.8402567,38.4088387 L15.8402567,35.7601197 Z M15.8402567,40.3676364 L17.6671733,40.3676364 L17.8215974,42.9150384 L15.8402567,42.9150384 L15.8402567,40.3676364 Z M15.8402567,44.8738361 L17.9393786,44.8738361 L18.1042722,47.6190476 L15.8402567,47.6190476 L15.8402567,44.8738361 Z M15.8402567,49.5778453 L18.2220534,49.5778453 L18.3817123,52.2241521 L15.8402567,52.2241521 L15.8402567,49.5778453 Z M15.8402567,54.1829498 L18.5021108,54.1829498 L18.6591523,56.8316688 L15.8402567,56.8316688 L15.8402567,54.1829498 Z" id="Fill-689"></path>
                    <polygon id="Fill-690" points="21.5761989 52.0434699 21.4688872 54.0046799 23.9187352 54.0046799 23.5941827 52.0434699"></polygon>
                    <polygon id="Fill-691" points="21.8965637 47.4407777 21.7918693 49.3971631 23.2759119 49.3971631 22.9592114 47.4407777"></polygon>
                </g>
            </g>
        </g>
    </g>
</svg>